<?xml version="1.0" encoding="UTF-8"?>
<svg viewBox="0 0 48 48" xmlns="http://www.w3.org/2000/svg">
<path d="m15.511 45.245c5.1256 2.6001 11.338 2.8176 16.133 0.5777-0.0889-0.0444-0.1332-0.0889-1.2443-0.8444-7.9112-4.6223-7.1556-11.333-5.9112-14.222 5.9112 1.4222 11.017 5.1525 14.267 1.0667 4.4889-5.6445-3.6444-10.4-7.0667-15.689l11.822-13.778-2.3556-1.7333c-0.6222 0.35551-3.7778 2.3111-12.933 7.8222-11.164-2.6311-18.815 5.3038-21.245 9.6-6.0162 12.367-0.07105 22.835 8.5334 27.2z"/>
<path d="m26.756 44.978c-8.4002 2.2666-23.422-6.5778-19.334-22.356 1.3037-4.5185 6.889-13.324 18.8-12.4-0.0711 0.3911-0.4444 1.7333-0.6222 2.3555l13.2-8.0444-9.8222 11.6s6.1929 7.7778 8.0444 9.8667 0.6667 6.4889-3.7778 5.2889c-4.0033-1.0809-6.0444-2.1334-10.267-3.2-2.8-0.9334-6.9689-4.08-4.9778-9.7334-1.9408 2.6815-3.8489 8.7556 4.4 11.6-2.6222 6.9334 0.8444 12.622 4.3557 15.022z" fill="#fff"/>
<path d="m22.4 29.956c-8.2489-2.8445-6.3407-8.9185-4.4-11.6 0 0-5.0666 5.4666-2.5333 15.511 2.2895 9.0776 11.289 11.111 11.289 11.111-3.5113-2.4-6.978-8.0889-4.3558-15.022z" fill="#D2DFFF"/>
<path d="m25.467 17.689c-1.1119-0.3708-2.3555 0.2222-2.6222 1.3333 0 0 1.2881 0.0588 2.0889 0.3111 0.7849 0.2474 1.8667 0.9778 1.8667 0.9778 0.2963-0.6815-0.2435-2.2588-1.3334-2.6222z"/>
</svg>
